<svg width="23" height="22" viewBox="0 0 23 22" fill="none" xmlns="http://www.w3.org/2000/svg">
<path fill-rule="evenodd" clip-rule="evenodd" d="M3.96512 6.13483C3.86905 6.03875 3.75499 5.96254 3.62946 5.91054C3.50393 5.85855 3.36939 5.83179 3.23352 5.83179C3.09765 5.83179 2.96311 5.85855 2.83758 5.91054C2.71205 5.96254 2.598 6.03875 2.50192 6.13483C2.40585 6.2309 2.32964 6.34496 2.27764 6.47049C2.22564 6.59601 2.19888 6.73055 2.19888 6.86643C2.19888 7.0023 2.22564 7.13684 2.27764 7.26236C2.32964 7.38789 2.40585 7.50195 2.50192 7.59803L10.7686 15.8647C10.8646 15.9609 10.9786 16.0373 11.1041 16.0894C11.2297 16.1415 11.3643 16.1683 11.5002 16.1683C11.6361 16.1683 11.7707 16.1415 11.8962 16.0894C12.0218 16.0373 12.1358 15.9609 12.2318 15.8647L20.4985 7.59803C20.6925 7.40399 20.8015 7.14083 20.8015 6.86643C20.8015 6.59202 20.6925 6.32886 20.4985 6.13483C20.3044 5.94079 20.0413 5.83179 19.7669 5.83179C19.4925 5.83179 19.2293 5.94079 19.0353 6.13483L11.5002 13.672L3.96512 6.13483Z" fill="#1D1D1D"/>
</svg>
